<svg id="logo" xmlns="http://www.w3.org/2000/svg" xmlns:xlink="http://www.w3.org/1999/xlink" width="800" height="120" viewBox="0 0 800 120"><defs><linearGradient id="linear-gradient" x1="252.72" y1="37.45" x2="252.72" y2="82.77" gradientUnits="userSpaceOnUse"><stop offset="0" stop-color="#f7911f"/><stop offset="1" stop-color="#fee800"/></linearGradient><linearGradient id="linear-gradient-2" x1="310.04" y1="37.45" x2="310.04" y2="82.77" xlink:href="#linear-gradient"/><linearGradient id="linear-gradient-3" x1="344.65" y1="37.45" x2="344.65" y2="82.77" xlink:href="#linear-gradient"/><linearGradient id="linear-gradient-4" x1="369.81" y1="37.45" x2="369.81" y2="82.77" xlink:href="#linear-gradient"/><linearGradient id="linear-gradient-5" x1="404.49" y1="37.45" x2="404.49" y2="82.77" xlink:href="#linear-gradient"/><linearGradient id="linear-gradient-6" x1="461.1" y1="37.45" x2="461.1" y2="82.77" xlink:href="#linear-gradient"/><linearGradient id="linear-gradient-7" x1="500.82" y1="37.45" x2="500.82" y2="82.77" xlink:href="#linear-gradient"/><linearGradient id="linear-gradient-8" x1="523.56" y1="37.45" x2="523.56" y2="82.77" xlink:href="#linear-gradient"/><linearGradient id="linear-gradient-9" x1="573.45" y1="37.45" x2="573.45" y2="82.77" xlink:href="#linear-gradient"/></defs><rect id="frame" width="800" height="120" fill="#fff"/><path id="back" d="M292.15,46.46c-5.6,26.85-30.84,54.82-55.6,54.82-16.58,0-27.14-10-23-30.06,7.79-37.33,39.77-53,59.94-53,8,0,11.45,2,11.07,3.82a2,2,0,0,1-2.25,1.6c-1,0-2.88-.25-6.07-.25-16.47,0-32.6,16.14-38.84,46.07-3.09,14.79.45,21.07,7.08,21.07,10.47,0,25.08-21.68,28.65-38.81,1.85-8.87-1.69-12.07-6.92-12.07a18.53,18.53,0,0,0-7.92,1.85,6.43,6.43,0,0,1-2.63,1c-.77,0-1.05-.5-.87-1.36,1.21-5.79,11.87-14,23.48-14C287.89,27.12,294.88,33.4,292.15,46.46ZM425.73,75.68c-2.66,2.72-8.29,6.64-14.63,6.64a7.08,7.08,0,0,1-7.2-5.23,19.66,19.66,0,0,1-13.23,5.23c-5,0-8.95-2.53-9.6-7.44-3.93,3.43-10.65,7.44-17,7.44-6,0-8.57-3-8.66-7-4,3.34-10.43,7-16.5,7-5.35,0-8-2.36-8.54-5.74-2.82,2.61-7.43,5.74-13.1,5.74-7.95,0-8.44-5.53-8.44-5.53a23.38,23.38,0,0,1-15.31,5.53c-5,0-7.85-3-6.89-7.75,1.25-6.24,6.16-13.59,6.89-17.21.34-1.71-.32-1.91-.06-3.22.45-2.21,7.7-3.72,13.53-3.72,2.22,0,3.24.9,2.9,2.61-.93,4.63-5.92,10.87-7.4,18.22a1.89,1.89,0,0,0,1.91,2.52c1.61,0,2.66-1.21,4.46-3.63A34.59,34.59,0,0,0,315,57.36c.35-1.71-.32-1.91-.05-3.22.44-2.21,7.69-3.72,13.53-3.72,2.22,0,3.24.9,2.9,2.61-.79,3.93-5.88,11.68-7.05,17.52-.43,2.11.57,3.62,2,3.62,1.71,0,2.68-.81,4.25-2.11l.15-.12C332.13,65.84,336,61,337,56.15c.26-1.3-2.62-.5-2.26-2.31.21-1,1.2-2.92,2.3-2.92,5.34,0,11.3-4.63,15.8-9.46,1.41-1.51,2.66-2.22,3.57-2.22,1.1,0,1.56.71,1.34,1.82-.44,2.21-2.64,6.14-3,7.85-.26,1.31.1,2,2.72,2,.8,0,1.34.3,1.18,1.11-.4,2-1.8,3.42-3,3.42-2.52,0-3.49.8-4.68,3.22-1.39,2.92-3.73,8-4.4,11.37C346,73,347.27,74,349.68,74c1.91,0,4.13-1.51,5.88-2.72l.57-.39c1.61-5.6,5.08-10.15,6-14.71.26-1.3-2.62-.5-2.25-2.31.2-1,1.19-2.92,2.3-2.92,5.33,0,11.29-4.63,15.79-9.46,1.41-1.51,2.66-2.22,3.57-2.22,1.1,0,1.57.71,1.34,1.82-.44,2.21-2.64,6.14-3,7.85-.26,1.31.1,2,2.72,2,.8,0,1.34.3,1.18,1.11-.4,2-1.79,3.42-3,3.42-2.52,0-3.49.8-4.68,3.22-1.39,2.92-3.73,8-4.4,11.37-.59,2.92.72,3.93,3.13,3.93,1.91,0,4.13-1.51,5.88-2.72l.49-.33c0-.13,0-.25.06-.37,2-10,10.09-20.13,24.49-20.13,5.33,0,7,1.91,8.57,1.91,2.51,0,7.43-1.91,9.74-1.91.91,0,1.43.4,1.21,1.51-.49,2.41-5.59,10.26-7.17,18.11-.53,2.62.78,4.13,2.59,4.13s2.68-.81,4.25-2.11c.84-.71,1.31-1,1.91-1A1.14,1.14,0,0,1,428,72.46C427.76,73.57,427,74.37,425.73,75.68ZM406.25,56c-3.42,0-8.75,9-10.09,15.6-.42,2.12.16,3.73,1.67,3.73,3.52,0,8.59-11.18,9.85-17.42C407.92,56.66,407.46,56,406.25,56ZM481,36.6c-.72,3.57,1.66,5.79,5.11,5.79,5.05,0,9.86-4.92,11-10.72,1.76-8.74-3.58-13.42-13.68-13.42s-26.08,7.14-28.78,20.57c-3,14.78,11.92,20.94,8.22,39.3-1.71,8.5-6.79,14.16-12.71,14.16-5.05,0-8.25-3.08-7.08-8.87s5.19-9.85,9.13-12.32c1.56-1,2.54-1.6,2.82-3,.22-1.11-.79-2.22-5-2.22-8.62,0-22.65,5.42-24.93,16.75-2.43,12.08,7.76,19,20.82,19,17.73,0,35.49-12.32,38.79-28.71C488.35,55,472.3,48.43,475.2,34c1.1-5.42,5.29-9.12,8.74-9.12,2.46,0,3.22,1.11,2.85,3C486.15,31.06,481.81,32.41,481,36.6Zm24.26,8.48c3.83,0,8.62-3.32,9.64-8.35.6-3-2-5.34-5.57-5.34-4.83,0-8.81,4.23-9.62,8.26C499.07,42.67,501.1,45.08,505.23,45.08Zm106.88-2.41c-5.49,27.27-33.11,45-52.14,45-14.24,0-23.79-4.13-25.48-12.49-4,3.36-10.5,7.15-16.63,7.15-5.36,0-8-2.36-8.55-5.75-2.83,2.61-7.52,5.75-13.19,5.75-6.64,0-10.22-3.72-9.29-8.35,1.3-6.44,5.94-13,6.67-16.61.34-1.71-.22-1.91,0-3.22.45-2.21,7.6-3.72,13.43-3.72,2.22,0,3.24.9,2.9,2.61-.81,4-5.31,10.37-6.81,17.82a2.56,2.56,0,0,0,2.35,3.32c1.41,0,2.48-.81,4-2.11l.14-.12c1.45-6.1,5.31-10.94,6.28-15.79.26-1.3-2.61-.5-2.25-2.31.2-1,1.19-2.92,2.3-2.92,5.33,0,11.3-4.63,15.79-9.46,1.42-1.51,2.66-2.22,3.57-2.22,1.11,0,1.57.71,1.35,1.82-.45,2.21-2.65,6.14-3,7.85-.27,1.31.09,2,2.71,2,.81,0,1.35.3,1.19,1.11-.41,2-1.8,3.42-3,3.42-2.51,0-3.48.8-4.67,3.22-1.4,2.92-3.74,8-4.41,11.37-.59,2.92.72,3.93,3.14,3.93,1.83,0,3.94-1.39,5.65-2.56a18.78,18.78,0,0,1,.35-2.68c2-9.76,12.08-18.51,25.47-18.51,6.84,0,9.8,3.32,8.88,7.85-1.23,6.14-8.49,11.67-18.05,11.67-.89,4.43,1.38,10.67,11.34,10.67,12.78,0,25.32-14.29,28.14-28.28,2-10.17-2.23-14.4-10.49-14.4-3.52,0-7.08,1.21-11.15,4.94a3.5,3.5,0,0,1-2.26,1.2c-.81,0-1.27-.7-1-2,2-10.06,14.94-20.73,27.32-20.73C606.69,21.13,615,28.37,612.11,42.67ZM551.37,64.91c5.34-1,8.46-5.54,8.89-7.65.24-1.21-.24-1.81-1.35-1.81C556.2,55.45,552.28,60.38,551.37,64.91Z" fill="#fff" stroke="#fff" stroke-linejoin="round" stroke-width="10"/><g id="o1"><path d="M244.53,90.56c10.47,0,25.08-21.68,28.65-38.81,1.85-8.87-1.69-12.07-6.92-12.07a18.53,18.53,0,0,0-7.92,1.85,6.43,6.43,0,0,1-2.63,1c-.77,0-1.05-.5-.87-1.36,1.21-5.79,11.87-14,23.48-14,9.57,0,16.56,6.28,13.83,19.34-5.6,26.85-30.84,54.82-55.6,54.82-16.58,0-27.14-10-23-30.06,7.79-37.33,39.77-53,59.94-53,8,0,11.45,2,11.07,3.82a2,2,0,0,1-2.25,1.6c-1,0-2.88-.25-6.07-.25-16.47,0-32.6,16.14-38.84,46.07C234.36,84.28,237.9,90.56,244.53,90.56Z" fill="url(#linear-gradient)"/></g><g id="u1"><path d="M308.86,76.79a23.38,23.38,0,0,1-15.31,5.53c-5,0-7.85-3-6.89-7.75,1.25-6.24,6.16-13.59,6.89-17.21.34-1.71-.32-1.91-.06-3.22.45-2.21,7.7-3.72,13.53-3.72,2.22,0,3.24.9,2.9,2.61-.93,4.63-5.92,10.87-7.4,18.22a1.89,1.89,0,0,0,1.91,2.52c1.61,0,2.66-1.21,4.46-3.63A34.59,34.59,0,0,0,315,57.36c.35-1.71-.32-1.91-.05-3.22.44-2.21,7.69-3.72,13.53-3.72,2.22,0,3.24.9,2.9,2.61-.79,3.93-5.88,11.68-7.05,17.52-.43,2.11.57,3.62,2,3.62,1.71,0,2.68-.81,4.25-2.11.85-.71,1.31-1,1.92-1a1.14,1.14,0,0,1,1.12,1.41c-.22,1.11-1,1.91-2.26,3.22-2.66,2.72-7.68,6.64-14,6.64C309.35,82.32,308.86,76.79,308.86,76.79Z" fill="url(#linear-gradient-2)"/></g><g id="t1"><path d="M351,58.67c-1.39,2.92-3.73,8-4.4,11.37C346,73,347.27,74,349.68,74c1.91,0,4.13-1.51,5.88-2.72,1.05-.7,1.78-1.31,2.38-1.31A1,1,0,0,1,359,71.15a5.84,5.84,0,0,1-1.7,2.42c-3.55,3.62-11.22,8.75-18.37,8.75s-9.49-4.33-8.42-9.66c1.3-6.44,5.43-11.47,6.45-16.51.26-1.3-2.62-.5-2.26-2.31.21-1,1.2-2.92,2.3-2.92,5.34,0,11.3-4.63,15.8-9.46,1.41-1.51,2.66-2.22,3.57-2.22,1.1,0,1.56.71,1.34,1.82-.44,2.21-2.64,6.14-3,7.85-.26,1.31.1,2,2.72,2,.8,0,1.34.3,1.18,1.11-.4,2-1.8,3.42-3,3.42C353.11,55.45,352.14,56.25,351,58.67Z" fill="url(#linear-gradient-3)"/></g><g id="t2"><path d="M376.11,58.67c-1.39,2.92-3.73,8-4.4,11.37-.59,2.92.72,3.93,3.13,3.93,1.91,0,4.13-1.51,5.88-2.72,1-.7,1.78-1.31,2.38-1.31a1,1,0,0,1,1.07,1.21,5.75,5.75,0,0,1-1.7,2.42c-3.55,3.62-11.22,8.75-18.37,8.75s-9.49-4.33-8.42-9.66c1.3-6.44,5.43-11.47,6.45-16.51.26-1.3-2.62-.5-2.25-2.31.2-1,1.19-2.92,2.3-2.92,5.33,0,11.29-4.63,15.79-9.46,1.41-1.51,2.66-2.22,3.57-2.22,1.1,0,1.57.71,1.34,1.82-.44,2.21-2.64,6.14-3,7.85-.26,1.31.1,2,2.72,2,.8,0,1.34.3,1.18,1.11-.4,2-1.79,3.42-3,3.42C378.27,55.45,377.3,56.25,376.11,58.67Z" fill="url(#linear-gradient-4)"/></g><g id="a1"><path d="M411.1,82.32a7.08,7.08,0,0,1-7.2-5.23,19.66,19.66,0,0,1-13.23,5.23c-6.34,0-11-4-9.4-11.77,2-10,10.09-20.13,24.49-20.13,5.33,0,7,1.91,8.57,1.91,2.51,0,7.43-1.91,9.74-1.91.91,0,1.43.4,1.21,1.51-.49,2.41-5.59,10.26-7.17,18.11-.53,2.62.78,4.13,2.59,4.13s2.68-.81,4.25-2.11c.84-.71,1.31-1,1.91-1A1.14,1.14,0,0,1,428,72.46c-.23,1.11-1,1.91-2.26,3.22C423.07,78.4,417.44,82.32,411.1,82.32ZM406.25,56c-3.42,0-8.75,9-10.09,15.6-.42,2.12.16,3.73,1.67,3.73,3.52,0,8.59-11.18,9.85-17.42C407.92,56.66,407.46,56,406.25,56Z" fill="url(#linear-gradient-5)"/></g><g id="s1"><path d="M462.87,78.12c3.7-18.36-11.2-24.52-8.22-39.3,2.7-13.43,18.56-20.57,28.78-20.57s15.44,4.68,13.68,13.43c-1.17,5.79-6,10.71-11,10.71-3.45,0-5.83-2.22-5.11-5.79.84-4.19,5.18-5.54,5.82-8.74.38-1.85-.39-3-2.85-3-3.45,0-7.64,3.7-8.74,9.12-2.9,14.41,13.15,20.94,9.53,38.92-3.3,16.39-21.06,28.71-38.79,28.71-13.06,0-23.25-6.9-20.82-19,2.28-11.33,16.31-16.75,24.93-16.75,4.19,0,5.2,1.11,5,2.22-.28,1.35-1.26,2-2.82,3-3.94,2.47-8,6.53-9.13,12.32s2,8.87,7.08,8.87C456.08,92.28,461.16,86.62,462.87,78.12Z" fill="url(#linear-gradient-6)"/></g><g id="i1"><path d="M486.83,74c1.3-6.44,5.94-13,6.67-16.61.34-1.71-.22-1.91,0-3.22.45-2.21,7.6-3.72,13.43-3.72,2.22,0,3.24.9,2.9,2.61-.81,4-5.31,10.37-6.81,17.82a2.56,2.56,0,0,0,2.35,3.32c1.41,0,2.48-.81,4-2.11.85-.71,1.31-1,1.91-1a1.14,1.14,0,0,1,1.13,1.41c-.22,1.11-1,1.91-2.26,3.22-2.66,2.72-7.78,6.64-14.12,6.64C489.48,82.32,485.9,78.6,486.83,74ZM509.3,31.39c3.62,0,6.17,2.32,5.57,5.34-1,5-5.81,8.35-9.64,8.35-4.13,0-6.16-2.41-5.55-5.43C500.49,35.62,504.47,31.39,509.3,31.39Z" fill="url(#linear-gradient-7)"/></g><g id="t3"><path d="M529.87,58.67c-1.4,2.92-3.74,8-4.41,11.37-.59,2.92.72,3.93,3.14,3.93,1.91,0,4.13-1.51,5.88-2.72,1-.7,1.77-1.31,2.38-1.31a1,1,0,0,1,1.06,1.21,5.79,5.79,0,0,1-1.69,2.42c-3.55,3.62-11.23,8.75-18.37,8.75s-9.5-4.33-8.42-9.66c1.29-6.44,5.43-11.47,6.44-16.51.26-1.3-2.61-.5-2.25-2.31.2-1,1.19-2.92,2.3-2.92,5.33,0,11.3-4.63,15.79-9.46,1.42-1.51,2.66-2.22,3.57-2.22,1.11,0,1.57.71,1.35,1.82-.45,2.21-2.65,6.14-3,7.85-.27,1.31.09,2,2.71,2,.81,0,1.35.3,1.19,1.11-.41,2-1.8,3.42-3,3.42C532,55.45,531.06,56.25,529.87,58.67Z" fill="url(#linear-gradient-8)"/></g><g id="e1"><path d="M590.38,52.13c2-10.17-2.23-14.4-10.49-14.4-3.52,0-7.08,1.21-11.15,4.94a3.5,3.5,0,0,1-2.26,1.2c-.81,0-1.27-.7-1-2,2-10.06,14.94-20.73,27.32-20.73,13.89,0,22.19,7.24,19.31,21.54-5.49,27.27-33.11,45-52.14,45-17.51,0-27.93-6.24-25.37-18.93,2-9.76,12.08-18.51,25.47-18.51,6.84,0,9.8,3.32,8.88,7.85-1.23,6.14-8.49,11.67-18.05,11.67-.89,4.43,1.38,10.67,11.34,10.67C575,80.41,587.56,66.12,590.38,52.13Zm-30.12,5.13c.24-1.21-.24-1.81-1.35-1.81-2.71,0-6.63,4.93-7.54,9.46C556.71,63.9,559.83,59.37,560.26,57.26Z" fill="url(#linear-gradient-9)"/></g><path id="front" d="M292.15,46.46c-5.6,26.85-30.84,54.82-55.6,54.82-16.58,0-27.14-10-23-30.06,7.79-37.33,39.77-53,59.94-53,8,0,11.45,2,11.07,3.82a2,2,0,0,1-2.25,1.6c-1,0-2.88-.25-6.07-.25-16.47,0-32.6,16.14-38.84,46.07-3.09,14.79.45,21.07,7.08,21.07,10.47,0,25.08-21.68,28.65-38.81,1.85-8.87-1.69-12.07-6.92-12.07a18.53,18.53,0,0,0-7.92,1.85,6.43,6.43,0,0,1-2.63,1c-.77,0-1.05-.5-.87-1.36,1.21-5.79,11.87-14,23.48-14C287.89,27.12,294.88,33.4,292.15,46.46ZM425.73,75.68c-2.66,2.72-8.29,6.64-14.63,6.64a7.08,7.08,0,0,1-7.2-5.23,19.66,19.66,0,0,1-13.23,5.23c-5,0-8.95-2.53-9.6-7.44-3.93,3.43-10.65,7.44-17,7.44-6,0-8.57-3-8.66-7-4,3.34-10.43,7-16.5,7-5.35,0-8-2.36-8.54-5.74-2.82,2.61-7.43,5.74-13.1,5.74-7.95,0-8.44-5.53-8.44-5.53a23.38,23.38,0,0,1-15.31,5.53c-5,0-7.85-3-6.89-7.75,1.25-6.24,6.16-13.59,6.89-17.21.34-1.71-.32-1.91-.06-3.22.45-2.21,7.7-3.72,13.53-3.72,2.22,0,3.24.9,2.9,2.61-.93,4.63-5.92,10.87-7.4,18.22a1.89,1.89,0,0,0,1.91,2.52c1.61,0,2.66-1.21,4.46-3.63A34.59,34.59,0,0,0,315,57.36c.35-1.71-.32-1.91-.05-3.22.44-2.21,7.69-3.72,13.53-3.72,2.22,0,3.24.9,2.9,2.61-.79,3.93-5.88,11.68-7.05,17.52-.43,2.11.57,3.62,2,3.62,1.71,0,2.68-.81,4.25-2.11l.15-.12C332.13,65.84,336,61,337,56.15c.26-1.3-2.62-.5-2.26-2.31.21-1,1.2-2.92,2.3-2.92,5.34,0,11.3-4.63,15.8-9.46,1.41-1.51,2.66-2.22,3.57-2.22,1.1,0,1.56.71,1.34,1.82-.44,2.21-2.64,6.14-3,7.85-.26,1.31.1,2,2.72,2,.8,0,1.34.3,1.18,1.11-.4,2-1.8,3.42-3,3.42-2.52,0-3.49.8-4.68,3.22-1.39,2.92-3.73,8-4.4,11.37C346,73,347.27,74,349.68,74c1.91,0,4.13-1.51,5.88-2.72l.57-.39c1.61-5.6,5.08-10.15,6-14.71.26-1.3-2.62-.5-2.25-2.31.2-1,1.19-2.92,2.3-2.92,5.33,0,11.29-4.63,15.79-9.46,1.41-1.51,2.66-2.22,3.57-2.22,1.1,0,1.57.71,1.34,1.82-.44,2.21-2.64,6.14-3,7.85-.26,1.31.1,2,2.72,2,.8,0,1.34.3,1.18,1.11-.4,2-1.79,3.42-3,3.42-2.52,0-3.49.8-4.68,3.22-1.39,2.92-3.73,8-4.4,11.37-.59,2.92.72,3.93,3.13,3.93,1.91,0,4.13-1.51,5.88-2.72l.49-.33c0-.13,0-.25.06-.37,2-10,10.09-20.13,24.49-20.13,5.33,0,7,1.91,8.57,1.91,2.51,0,7.43-1.91,9.74-1.91.91,0,1.43.4,1.21,1.51-.49,2.41-5.59,10.26-7.17,18.11-.53,2.62.78,4.13,2.59,4.13s2.68-.81,4.25-2.11c.84-.71,1.31-1,1.91-1A1.14,1.14,0,0,1,428,72.46C427.76,73.57,427,74.37,425.73,75.68ZM406.25,56c-3.42,0-8.75,9-10.09,15.6-.42,2.12.16,3.73,1.67,3.73,3.52,0,8.59-11.18,9.85-17.42C407.92,56.66,407.46,56,406.25,56ZM481,36.6c-.72,3.57,1.66,5.79,5.11,5.79,5.05,0,9.86-4.92,11-10.72,1.76-8.74-3.58-13.42-13.68-13.42s-26.08,7.14-28.78,20.57c-3,14.78,11.92,20.94,8.22,39.3-1.71,8.5-6.79,14.16-12.71,14.16-5.05,0-8.25-3.08-7.08-8.87s5.19-9.85,9.13-12.32c1.56-1,2.54-1.6,2.82-3,.22-1.11-.79-2.22-5-2.22-8.62,0-22.65,5.42-24.93,16.75-2.43,12.08,7.76,19,20.82,19,17.73,0,35.49-12.32,38.79-28.71C488.35,55,472.3,48.43,475.2,34c1.1-5.42,5.29-9.12,8.74-9.12,2.46,0,3.22,1.11,2.85,3C486.15,31.06,481.81,32.41,481,36.6Zm24.26,8.48c3.83,0,8.62-3.32,9.64-8.35.6-3-2-5.34-5.57-5.34-4.83,0-8.81,4.23-9.62,8.26C499.07,42.67,501.1,45.08,505.23,45.08Zm106.88-2.41c-5.49,27.27-33.11,45-52.14,45-14.24,0-23.79-4.13-25.48-12.49-4,3.36-10.5,7.15-16.63,7.15-5.36,0-8-2.36-8.55-5.75-2.83,2.61-7.52,5.75-13.19,5.75-6.64,0-10.22-3.72-9.29-8.35,1.3-6.44,5.94-13,6.67-16.61.34-1.71-.22-1.91,0-3.22.45-2.21,7.6-3.72,13.43-3.72,2.22,0,3.24.9,2.9,2.61-.81,4-5.31,10.37-6.81,17.82a2.56,2.56,0,0,0,2.35,3.32c1.41,0,2.48-.81,4-2.11l.14-.12c1.45-6.1,5.31-10.94,6.28-15.79.26-1.3-2.61-.5-2.25-2.31.2-1,1.19-2.92,2.3-2.92,5.33,0,11.3-4.63,15.79-9.46,1.42-1.51,2.66-2.22,3.57-2.22,1.11,0,1.57.71,1.35,1.82-.45,2.21-2.65,6.14-3,7.85-.27,1.31.09,2,2.71,2,.81,0,1.35.3,1.19,1.11-.41,2-1.8,3.42-3,3.42-2.51,0-3.48.8-4.67,3.22-1.4,2.92-3.74,8-4.41,11.37-.59,2.92.72,3.93,3.14,3.93,1.83,0,3.94-1.39,5.65-2.56a18.78,18.78,0,0,1,.35-2.68c2-9.76,12.08-18.51,25.47-18.51,6.84,0,9.8,3.32,8.88,7.85-1.23,6.14-8.49,11.67-18.05,11.67-.89,4.43,1.38,10.67,11.34,10.67,12.78,0,25.32-14.29,28.14-28.28,2-10.17-2.23-14.4-10.49-14.4-3.52,0-7.08,1.21-11.15,4.94a3.5,3.5,0,0,1-2.26,1.2c-.81,0-1.27-.7-1-2,2-10.06,14.94-20.73,27.32-20.73C606.69,21.13,615,28.37,612.11,42.67ZM551.37,64.91c5.34-1,8.46-5.54,8.89-7.65.24-1.21-.24-1.81-1.35-1.81C556.2,55.45,552.28,60.38,551.37,64.91Z" fill="none" stroke="#6e2a13" stroke-linejoin="round" stroke-width="1.5"/></svg>